<?xml version="1.0" encoding="UTF-8"?>
<svg width="34px" height="28px" viewBox="0 0 34 28" version="1.1" xmlns="http://www.w3.org/2000/svg" xmlns:xlink="http://www.w3.org/1999/xlink">
    <!-- Generator: Sketch 40.3 (33839) - http://www.bohemiancoding.com/sketch -->
    <title>icon__quote</title>
    <desc>Created with Sketch.</desc>
    <defs></defs>
    <g id="Page-1" stroke="none" stroke-width="1" fill="none" fill-rule="evenodd">
        <g id="icon__quote" transform="translate(-1.000000, -4.000000)">
            <g id="desktop">
                <g id="home">
                    <g id="testimonials">
                        <g id="icon__comma">
                            <g id="Group">
                                <path d="M26.0088191,10.5271645 C24.3897036,12.551059 23.5801579,14.6013213 23.5801579,16.678013 C23.5801579,17.5579672 23.6857508,18.3147163 23.8969398,18.9482833 C25.1288756,17.9979329 26.4663858,17.5227648 27.9095105,17.5227648 C29.8806077,17.5227648 31.5260973,18.1475228 32.8460284,19.3970577 C34.1659596,20.6465925 34.8259153,22.3272797 34.8259153,24.4391695 C34.8259153,26.4102668 34.1571602,28.0557563 32.8196299,29.3756875 C31.4820997,30.6956186 29.8454096,31.3555743 27.9095105,31.3555743 C25.1288555,31.3555743 22.9993985,30.2116511 21.5210756,27.9237704 C20.2891398,26.0230695 19.6731812,23.6472291 19.6731812,20.7961777 C19.6731812,17.1707668 20.5971191,13.9237848 22.4450228,11.0551343 C24.2929264,8.18648393 27.0823391,5.87223931 30.8133446,4.11233108 L31.8164873,6.06581945 C29.5638047,7.0161699 27.6279347,8.50327005 26.0088191,10.5271645 L26.0088191,10.5271645 L26.0088191,10.5271645 Z M7.63546904,10.5271645 C6.01635347,12.551059 5.20680783,14.6013213 5.20680783,16.678013 C5.20680783,17.5579672 5.31240074,18.3147163 5.52358972,18.9482833 C6.72032732,17.9979329 8.05783752,17.5227648 9.53616043,17.5227648 C11.4720595,17.5227648 13.1087496,18.1475228 14.4462799,19.3970577 C15.7838101,20.6465925 16.4525652,22.3272797 16.4525652,24.4391695 C16.4525652,25.7415016 16.1357865,26.9206225 15.5022195,27.9765674 C14.8686526,29.0325124 14.0239093,29.8596568 12.9679643,30.4580256 C11.9120194,31.0563944 10.7680962,31.3555743 9.53616043,31.3555743 C6.75550542,31.3555743 4.6260484,30.2116511 3.14772549,27.9237704 C1.91578972,26.0230695 1.29983108,23.6472291 1.29983108,20.7961777 C1.29983108,17.1707668 2.22376904,13.9237848 4.07167269,11.0551343 C5.91957634,8.18648393 8.70898904,5.87223931 12.4399945,4.11233108 L13.4431372,6.06581945 C11.1904546,7.0161699 9.25458462,8.50327005 7.63546904,10.5271645 L7.63546904,10.5271645 L7.63546904,10.5271645 Z" id="“" fill="#5050FF"></path>
                                <rect id="form" x="0.549359679" y="0.220439189" width="35.027027" height="35.027027"></rect>
                            </g>
                        </g>
                    </g>
                </g>
            </g>
        </g>
    </g>
</svg>