<?xml version="1.0" encoding="UTF-8"?>
<svg width="55px" height="14px" viewBox="0 0 55 14" version="1.1" xmlns="http://www.w3.org/2000/svg" xmlns:xlink="http://www.w3.org/1999/xlink">
    <!-- Generator: Sketch 41.2 (35397) - http://www.bohemiancoding.com/sketch -->
    <title>significa-logo--white</title>
    <desc>Created with Sketch.</desc>
    <defs></defs>
    <g id="Page-1" stroke="none" stroke-width="1" fill="none" fill-rule="evenodd">
        <g id="significa-logo--white" transform="translate(0.000000, -2.000000)">
            <rect id="Rectangle" x="0" y="0" width="55" height="16"></rect>
            <path d="M10.3557037,4.25414815 C10.1024691,4.50735802 9.79274074,4.63385185 9.42602469,4.63385185 C9.0594321,4.63385185 8.74938272,4.50735802 8.49637037,4.25414815 C8.24301235,4.00103704 8.11651852,3.68898765 8.11651852,3.31780247 C8.11651852,2.94688889 8.24301235,2.63483951 8.49637037,2.38148148 C8.74938272,2.12841975 9.0594321,2.00175309 9.42602469,2.00175309 C9.79274074,2.00175309 10.1024691,2.12841975 10.3557037,2.38148148 C10.6087901,2.63483951 10.7354815,2.94688889 10.7354815,3.31780247 C10.7354815,3.68898765 10.6087901,4.00103704 10.3557037,4.25414815 L10.3557037,4.25414815 Z M8.31298765,12.3859012 L10.5522716,12.3859012 L10.5522716,5.07908642 L8.31298765,5.07908642 L8.31298765,12.3859012 Z" id="Fill-1" fill="#FFFFFF"></path>
            <path d="M12.5752346,11.4299753 C11.9291111,10.7315802 11.6061481,9.83693827 11.6061481,8.74555556 C11.6061481,7.65437037 11.9291111,6.75748148 12.5752346,6.05459259 C13.2211852,5.35197531 14.0091605,5.00049383 14.9388148,5.00049383 C15.8684938,5.00049383 16.5821975,5.34545679 17.0798519,6.03501235 L17.0798519,5.07903704 L19.318963,5.07903704 L19.318963,12.3466914 C19.318963,13.3679753 19.0395556,14.2190617 18.480963,14.9000988 C18.2014074,15.2491852 17.8197037,15.5198025 17.3351358,15.7119506 C16.8506667,15.9038272 16.2896049,16 15.6524444,16 C14.534963,16 13.6489877,15.772963 12.994321,15.319037 C12.3395062,14.8651358 11.9683457,14.1710617 11.8811605,13.2370617 L14.081037,13.2370617 C14.2906914,13.7870617 14.8143457,14.062 15.6524444,14.062 C16.0627407,14.062 16.4031605,13.9244938 16.6738272,13.6494815 C16.9442469,13.3745432 17.0798519,12.9401235 17.0798519,12.3466914 L17.0798519,11.325284 C16.5383704,12.0935309 15.8139753,12.4775556 14.9060247,12.4775556 C13.9980494,12.4775556 13.2211852,12.1284691 12.5752346,11.4299753 M16.5953086,10.0681235 C16.9181975,9.75387654 17.0798519,9.30864198 17.0798519,8.73249383 C17.0798519,8.1562963 16.9181975,7.71333333 16.5953086,7.40333333 C16.2721481,7.0937037 15.9012099,6.93844444 15.4822716,6.93844444 C15.0632099,6.93844444 14.6920247,7.09560494 14.3692593,7.40992593 C14.0460741,7.72417284 13.8846914,8.16940741 13.8846914,8.74555556 C13.8846914,9.32167901 14.0460741,9.76488889 14.3692593,10.074642 C14.6920247,10.3846914 15.0632099,10.5395556 15.4822716,10.5395556 C15.9012099,10.5395556 16.2721481,10.3823457 16.5953086,10.0681235" id="Fill-2" fill="#FFFFFF"></path>
            <path d="M22.8875802,5.07903704 L22.8875802,6.15283951 C23.3501481,5.38469136 24.0877778,5.00049383 25.1004938,5.00049383 C25.9385185,5.00049383 26.617284,5.27997531 27.1367901,5.83859259 C27.6560494,6.39735802 27.9160494,7.15683951 27.9160494,8.11701235 L27.9160494,12.3858272 L25.6898765,12.3858272 L25.6898765,8.41824691 C25.6898765,7.94681481 25.5654321,7.5822963 25.3165432,7.32474074 C25.0679012,7.06738272 24.7251852,6.93849383 24.2886667,6.93849383 C23.8520741,6.93849383 23.5095309,7.06738272 23.2607654,7.32474074 C23.0120741,7.5822963 22.8875802,7.94681481 22.8875802,8.41824691 L22.8875802,12.3858272 L20.648321,12.3858272 L20.648321,5.07903704 L22.8875802,5.07903704" id="Fill-3" fill="#FFFFFF"></path>
            <path d="M31.2479012,4.25414815 C30.9945679,4.50735802 30.6846914,4.63385185 30.3182716,4.63385185 C29.951358,4.63385185 29.6414815,4.50735802 29.3883951,4.25414815 C29.1350617,4.00103704 29.008642,3.68898765 29.008642,3.31780247 C29.008642,2.94688889 29.1350617,2.63483951 29.3883951,2.38148148 C29.6414815,2.12841975 29.951358,2.00175309 30.3182716,2.00175309 C30.6846914,2.00175309 30.9945679,2.12841975 31.2479012,2.38148148 C31.5009877,2.63483951 31.6276543,2.94688889 31.6276543,3.31780247 C31.6276543,3.68898765 31.5009877,4.00103704 31.2479012,4.25414815 L31.2479012,4.25414815 Z M29.2049383,12.3859012 L31.4441975,12.3859012 L31.4441975,5.07908642 L29.2049383,5.07908642 L29.2049383,12.3859012 Z" id="Fill-4" fill="#FFFFFF"></path>
            <path d="M36.4271605,5.07903704 L36.4271605,6.93849383 L35.497284,6.93849383 L35.497284,12.3858272 L33.2580247,12.3858272 L33.2580247,6.93849383 L32.577284,6.93849383 L32.577284,5.07903704 L33.2580247,5.07903704 L33.2580247,4.80409877 C33.2580247,3.87881481 33.5046914,3.20217284 33.9980247,2.77437037 C34.4911111,2.34669136 35.2659259,2.13276543 36.3224691,2.13276543 L36.3224691,4.03148148 C36.0254321,4.03148148 35.8135802,4.08834568 35.6871605,4.20177778 C35.5604938,4.31520988 35.497284,4.51602469 35.497284,4.80409877 L35.497284,5.07903704 L36.4271605,5.07903704" id="Fill-5" fill="#FFFFFF"></path>
            <path d="M39.6214815,4.25414815 C39.3681481,4.50735802 39.0582716,4.63385185 38.6918519,4.63385185 C38.3249383,4.63385185 38.0150617,4.50735802 37.7619753,4.25414815 C37.508642,4.00103704 37.3822222,3.68898765 37.3822222,3.31780247 C37.3822222,2.94688889 37.508642,2.63483951 37.7619753,2.38148148 C38.0150617,2.12841975 38.3249383,2.00175309 38.6918519,2.00175309 C39.0582716,2.00175309 39.3681481,2.12841975 39.6214815,2.38148148 C39.874321,2.63483951 40.0009877,2.94688889 40.0009877,3.31780247 C40.0009877,3.68898765 39.874321,4.00103704 39.6214815,4.25414815 L39.6214815,4.25414815 Z M37.5785185,12.3859012 L39.8177778,12.3859012 L39.8177778,5.07908642 L37.5785185,5.07908642 L37.5785185,12.3859012 Z" id="Fill-6" fill="#FFFFFF"></path>
            <path d="M6.99590123,8.37760494 C6.82866667,8.04017284 6.60733333,7.77718519 6.33195062,7.58849383 C6.05641975,7.40002469 5.7505679,7.24051852 5.41469136,7.11017284 C5.07861728,6.97987654 4.73980247,6.86790123 4.39841975,6.77407407 C4.05708642,6.68037037 3.74767901,6.58249383 3.47049383,6.48076543 C3.19328395,6.37918519 2.96958025,6.2374321 2.79940741,6.05550617 C2.62903704,5.87355556 2.54683951,5.63641975 2.55271605,5.34345679 C2.55859259,5.05059259 2.65679012,4.82844444 2.84758025,4.67644444 C3.03809877,4.52474074 3.27982716,4.45165432 3.57281481,4.45750617 C3.86550617,4.46333333 4.10387654,4.56209877 4.28782716,4.75320988 C4.47150617,4.94466667 4.57834568,5.2145679 4.60802469,5.56298765 L6.81217284,5.56298765 C6.81449383,4.39639506 5.99061728,2.65207407 3.69911111,2.6062716 C2.66039506,2.58550617 1.80160494,2.83854321 1.12298765,3.36496296 C0.444074074,3.89167901 0.0959012346,4.60316049 0.0779259259,5.49985185 C0.0687654321,5.95758025 0.147728395,6.35501235 0.315012346,6.69244444 C0.482024691,7.02995062 0.703308642,7.29069136 0.979111111,7.4745679 C1.25449383,7.6585679 1.56019753,7.81809877 1.89637037,7.95296296 C2.23224691,8.088 2.5711358,8.20224691 2.91246914,8.29597531 C3.25382716,8.38995062 3.56303704,8.48987654 3.84024691,8.59607407 C4.11720988,8.70244444 4.34093827,8.84419753 4.51145679,9.02133333 C4.68155556,9.19883951 4.76422222,9.42464198 4.75881481,9.69920988 C4.75323457,9.97375309 4.65261728,10.1982222 4.45696296,10.3728642 C4.26118519,10.5474321 3.99387654,10.6313333 3.65553086,10.6245432 C2.93520988,10.6101235 2.54967901,10.2205432 2.4988642,9.4562716 L7.40740741e-05,9.4562716 C-0.0052345679,10.3888395 0.310864198,11.1176296 0.950740741,11.6415309 C1.60358025,12.1763704 2.4722963,12.4546173 3.55671605,12.476321 C4.64096296,12.4979753 5.52049383,12.2251111 6.1957037,11.6571605 C6.87074074,11.0894568 7.21639506,10.3984444 7.23266667,9.58382716 C7.24197531,9.11720988 7.16298765,8.71518519 6.99590123,8.37760494" id="Fill-8" fill="#FFFFFF"></path>
            <path d="M40.8461728,8.73249383 C40.8461728,9.85859259 41.1888889,10.7730617 41.874321,11.4496543 C42.56,12.1261481 43.408642,12.4644938 44.4207407,12.4644938 C45.4032099,12.4644938 46.3140741,12.1665926 46.9469136,11.5680494 L46.2476543,9.87081481 C45.9358025,10.1659753 45.294321,10.5526914 44.7234568,10.5526914 C43.5933333,10.5526914 43.1246914,9.47745679 43.1246914,8.73249383 C43.1246914,7.98748148 43.5933333,6.9122716 44.7234568,6.9122716 C45.2958025,6.9122716 45.9387654,7.30076543 46.2498765,7.5962716 L46.954321,5.904 C46.3212346,5.30079012 45.4071605,5.00049383 44.4207407,5.00049383 C43.408642,5.00049383 42.56,5.33879012 41.874321,6.01535802 C41.1888889,6.69185185 40.8461728,7.60634568 40.8461728,8.73249383" id="Fill-10" fill="#FFFFFF"></path>
            <path d="M48.2192593,11.4299753 C47.5730864,10.7315802 47.2501235,9.83693827 47.2501235,8.74555556 C47.2501235,7.65437037 47.5730864,6.75748148 48.2192593,6.05459259 C48.8649383,5.35197531 49.6530864,5.00049383 50.582716,5.00049383 C51.5123457,5.00049383 52.2261728,5.34545679 52.7237037,6.03501235 L52.7237037,5.07903704 L54.962963,5.07903704 L54.962963,12.3859012 L52.7237037,12.3859012 L52.7237037,11.325284 C52.1822222,12.0935309 51.4577778,12.4775556 50.5498765,12.4775556 C49.6419753,12.4775556 48.8649383,12.1284691 48.2192593,11.4299753 M52.2392593,10.0681235 C52.5619753,9.75387654 52.7237037,9.30864198 52.7237037,8.73249383 C52.7237037,8.1562963 52.5619753,7.71333333 52.2392593,7.40333333 C51.9162963,7.0937037 51.5451852,6.93844444 51.1261728,6.93844444 C50.7071605,6.93844444 50.3360494,7.09560494 50.0130864,7.40992593 C49.6901235,7.72417284 49.5283951,8.16940741 49.5283951,8.74555556 C49.5283951,9.32167901 49.6901235,9.76488889 50.0130864,10.074642 C50.3360494,10.3846914 50.7071605,10.5395556 51.1261728,10.5395556 C51.5451852,10.5395556 51.9162963,10.3823457 52.2392593,10.0681235" id="Fill-11" fill="#FFFFFF"></path>
        </g>
    </g>
</svg>